<?xml version="1.0" encoding="utf-8"?>
<!-- Generator: Adobe Illustrator 16.0.0, SVG Export Plug-In . SVG Version: 6.00 Build 0)  -->
<!DOCTYPE svg PUBLIC "-//W3C//DTD SVG 1.1//EN" "http://www.w3.org/Graphics/SVG/1.1/DTD/svg11.dtd">
<svg version="1.1" id="Layer_1" xmlns="http://www.w3.org/2000/svg" xmlns:xlink="http://www.w3.org/1999/xlink" x="0px" y="0px"
	 width="24px" height="24px" viewBox="0 0 24 24" enable-background="new 0 0 24 24" xml:space="preserve">
<g>
	<path d="M8.169,8.844c0.688,2.01,1.982,3.538,3.824,3.538c1.773,0,3.087-1.506,3.797-3.513c1.433-1.445,1.094-2.525,0.764-3.041
		C17.332,2.102,14.953,0,11.858,0C6.308,0,7.276,6.08,7.276,6.08c0.006,0.001,0.012,0.001,0.019,0.002
		C7.042,6.654,6.966,7.616,8.169,8.844z M10.487,4.33l-0.405,1.509c1.981-0.604,2.247-0.936,2.559-1.163
		c0.324-0.235,0.597-0.474,0.82-0.691c0.103,0.184,0.231,0.352,0.378,0.504c0.147,0.154,0.365-1.397,0.365-1.397
		s0.547,0.942,0.623,1.247c0.054,0.216,0.4,1.09,0.586,1.17c-0.07,2.885-1.364,5.9-3.42,5.9c-1.915,0-3.169-2.615-3.389-5.305
		C9.13,6.072,10.487,4.33,10.487,4.33z"/>
	<path d="M13.933,20.109v0.582c0.096,0.006,0.268,0.016,0.499,0.016c0.685,0,1.869-0.082,3.024-0.545v-0.607
		C15.927,20.342,13.964,20.112,13.933,20.109z"/>
	<path d="M21.95,16.997c-1.151-3.028-3.779-4.278-3.814-4.295l-2.911-1.065l-1.283,3.117l-1.313-1.598h-1.274l-1.313,1.598
		l-1.283-3.117l-2.859,1.051l-0.035,0.015C5.829,12.719,3.2,13.969,2.05,16.997c-0.234,0.616-0.408,1.308-0.484,2.077
		c0.292,0.354,0.604,0.693,0.93,1.018c0.35,0.345,0.719,0.67,1.104,0.976C5.903,22.9,8.818,23.998,11.991,24c0.007,0,0.013,0,0.02,0
		c0.227,0,0.451-0.006,0.676-0.018c0.004,0,0.01,0,0.015,0c2.904-0.148,5.563-1.217,7.7-2.916c0.385-0.305,0.754-0.63,1.103-0.975
		c0.327-0.324,0.638-0.663,0.931-1.018C22.357,18.305,22.185,17.614,21.95,16.997z M19.196,19.951
		c0.03-1.008,0.041-2.293-0.039-3.436l-0.971,0.067c0.098,1.397,0.057,3.024,0.012,4.054c-1.561,0.955-3.359,1.557-5.287,1.703
		l-0.365-6.398h-1.107l-0.365,6.398c-1.92-0.148-3.711-0.75-5.268-1.701c-0.049-1.01-0.096-2.609-0.004-4.025L4.831,16.55
		c-0.074,1.151-0.061,2.412-0.027,3.403c-0.762-0.58-1.451-1.25-2.053-1.994c0.809-2.999,3.254-4.246,3.504-4.366l1.961-0.72
		l1.546,3.754l1.31-1.593l0.332,0.472h1.179l0.331-0.471l1.309,1.592l1.547-3.756l1.976,0.723c0.257,0.123,2.698,1.371,3.505,4.365
		C20.647,18.702,19.958,19.372,19.196,19.951z"/>
</g>
</svg>
