<?xml version='1.0' encoding='iso-8859-1'?>
<svg version="1.1" xmlns="http://www.w3.org/2000/svg" viewBox="0 0 44 44" xmlns:xlink="http://www.w3.org/1999/xlink" enable-background="new 0 0 44 44">
  <g>
    <g>
      <g>
        <path d="M6,11H4v14c0,1.104,0.896,2,2,2h13v-2H6V11z M38,11v14H25v2h13c1.104,0,2-0.896,2-2V11H38z"/>
      </g>
    </g>
    <g>
      <g>
        <path d="m21,31h2c1.104,0 2-0.896 2-2v-6c0-1.104-0.896-2-2-2h-2c-1.104,0-2,0.896-2,2v6c0,1.104 0.896,2 2,2zm0-8h2v6h-2v-6zm21-14h-11v-4c0-1.104-0.896-2-2-2h-14c-1.104,0-2,0.896-2,2v4h-11c-1.104,0-2,0.896-2,2v28c0,1.104 0.896,2 2,2h40c1.104,0 2-0.896 2-2v-28c0-1.104-0.896-2-2-2zm-27-4h14v4h-14v-4zm27,34h-40v-28h40v28z"/>
      </g>
    </g>
  </g>
</svg>
